<mxfile host="app.diagrams.net" agent="Mozilla/5.0 (Windows NT 10.0; Win64; x64) AppleWebKit/537.36 (KHTML, like Gecko) Chrome/131.0.0.0 Safari/537.36" version="25.0.3">
  <diagram name="Page-1" id="_xUHS9mLkxcPEhT5gaJq">
    <mxGraphModel dx="1434" dy="746" grid="1" gridSize="10" guides="1" tooltips="1" connect="1" arrows="1" fold="1" page="1" pageScale="1" pageWidth="827" pageHeight="1169" math="0" shadow="0">
      <root>
        <mxCell id="0" />
        <mxCell id="1" parent="0" />
        <mxCell id="90ore4e1R3nUi26I3FRk-1" value="" style="ellipse;whiteSpace=wrap;html=1;aspect=fixed;fillColor=#000000;" vertex="1" parent="1">
          <mxGeometry x="40" y="300" width="40" height="40" as="geometry" />
        </mxCell>
        <mxCell id="90ore4e1R3nUi26I3FRk-2" value="" style="endArrow=classic;html=1;rounded=0;exitX=1;exitY=0.5;exitDx=0;exitDy=0;entryX=0;entryY=0.5;entryDx=0;entryDy=0;" edge="1" parent="1" source="90ore4e1R3nUi26I3FRk-1" target="90ore4e1R3nUi26I3FRk-4">
          <mxGeometry width="50" height="50" relative="1" as="geometry">
            <mxPoint x="360" y="550" as="sourcePoint" />
            <mxPoint x="170" y="320" as="targetPoint" />
          </mxGeometry>
        </mxCell>
        <mxCell id="90ore4e1R3nUi26I3FRk-3" style="edgeStyle=orthogonalEdgeStyle;rounded=0;orthogonalLoop=1;jettySize=auto;html=1;entryX=0;entryY=0.5;entryDx=0;entryDy=0;" edge="1" parent="1" source="90ore4e1R3nUi26I3FRk-4" target="90ore4e1R3nUi26I3FRk-6">
          <mxGeometry relative="1" as="geometry" />
        </mxCell>
        <mxCell id="90ore4e1R3nUi26I3FRk-4" value="&lt;b&gt;Complaint created&lt;/b&gt;" style="rounded=1;whiteSpace=wrap;html=1;" vertex="1" parent="1">
          <mxGeometry x="200" y="290" width="120" height="60" as="geometry" />
        </mxCell>
        <mxCell id="90ore4e1R3nUi26I3FRk-5" style="edgeStyle=orthogonalEdgeStyle;rounded=0;orthogonalLoop=1;jettySize=auto;html=1;entryX=0;entryY=0.5;entryDx=0;entryDy=0;" edge="1" parent="1" source="90ore4e1R3nUi26I3FRk-6" target="90ore4e1R3nUi26I3FRk-8">
          <mxGeometry relative="1" as="geometry" />
        </mxCell>
        <mxCell id="90ore4e1R3nUi26I3FRk-19" style="edgeStyle=orthogonalEdgeStyle;rounded=0;orthogonalLoop=1;jettySize=auto;html=1;" edge="1" parent="1" source="90ore4e1R3nUi26I3FRk-6" target="90ore4e1R3nUi26I3FRk-18">
          <mxGeometry relative="1" as="geometry" />
        </mxCell>
        <mxCell id="90ore4e1R3nUi26I3FRk-6" value="&lt;b&gt;Under review&lt;/b&gt;" style="rounded=1;whiteSpace=wrap;html=1;" vertex="1" parent="1">
          <mxGeometry x="440" y="290" width="120" height="60" as="geometry" />
        </mxCell>
        <mxCell id="90ore4e1R3nUi26I3FRk-7" style="edgeStyle=orthogonalEdgeStyle;rounded=0;orthogonalLoop=1;jettySize=auto;html=1;entryX=0.5;entryY=0;entryDx=0;entryDy=0;" edge="1" parent="1" source="90ore4e1R3nUi26I3FRk-8" target="90ore4e1R3nUi26I3FRk-16">
          <mxGeometry relative="1" as="geometry">
            <mxPoint x="740" y="420" as="targetPoint" />
          </mxGeometry>
        </mxCell>
        <mxCell id="90ore4e1R3nUi26I3FRk-8" value="&lt;b&gt;Resolved&lt;/b&gt;" style="rounded=1;whiteSpace=wrap;html=1;" vertex="1" parent="1">
          <mxGeometry x="680" y="290" width="120" height="60" as="geometry" />
        </mxCell>
        <mxCell id="90ore4e1R3nUi26I3FRk-9" value="The complaint is created" style="text;html=1;align=center;verticalAlign=middle;whiteSpace=wrap;rounded=0;" vertex="1" parent="1">
          <mxGeometry x="90" y="270" width="100" height="30" as="geometry" />
        </mxCell>
        <mxCell id="90ore4e1R3nUi26I3FRk-10" value="The compaint request is sent" style="text;html=1;align=center;verticalAlign=middle;whiteSpace=wrap;rounded=0;" vertex="1" parent="1">
          <mxGeometry x="320" y="270" width="100" height="30" as="geometry" />
        </mxCell>
        <mxCell id="90ore4e1R3nUi26I3FRk-11" value="The university resolves an issue" style="text;html=1;align=center;verticalAlign=middle;whiteSpace=wrap;rounded=0;" vertex="1" parent="1">
          <mxGeometry x="570" y="270" width="100" height="30" as="geometry" />
        </mxCell>
        <mxCell id="90ore4e1R3nUi26I3FRk-14" value="The university terminates the internship" style="text;html=1;align=center;verticalAlign=middle;whiteSpace=wrap;rounded=0;" vertex="1" parent="1">
          <mxGeometry x="390" y="370" width="100" height="30" as="geometry" />
        </mxCell>
        <mxCell id="90ore4e1R3nUi26I3FRk-15" value="" style="group" vertex="1" connectable="0" parent="1">
          <mxGeometry x="720" y="430" width="40" height="40" as="geometry" />
        </mxCell>
        <mxCell id="90ore4e1R3nUi26I3FRk-16" value="" style="ellipse;whiteSpace=wrap;html=1;aspect=fixed;" vertex="1" parent="90ore4e1R3nUi26I3FRk-15">
          <mxGeometry width="40" height="40" as="geometry" />
        </mxCell>
        <mxCell id="90ore4e1R3nUi26I3FRk-17" value="" style="ellipse;whiteSpace=wrap;html=1;aspect=fixed;fillColor=#000000;" vertex="1" parent="90ore4e1R3nUi26I3FRk-15">
          <mxGeometry x="4" y="4" width="32" height="32" as="geometry" />
        </mxCell>
        <mxCell id="90ore4e1R3nUi26I3FRk-20" style="edgeStyle=orthogonalEdgeStyle;rounded=0;orthogonalLoop=1;jettySize=auto;html=1;entryX=0;entryY=0.5;entryDx=0;entryDy=0;" edge="1" parent="1" source="90ore4e1R3nUi26I3FRk-18" target="90ore4e1R3nUi26I3FRk-16">
          <mxGeometry relative="1" as="geometry" />
        </mxCell>
        <mxCell id="90ore4e1R3nUi26I3FRk-18" value="&lt;b&gt;Escalated&lt;/b&gt;" style="rounded=1;whiteSpace=wrap;html=1;" vertex="1" parent="1">
          <mxGeometry x="440" y="420" width="120" height="60" as="geometry" />
        </mxCell>
      </root>
    </mxGraphModel>
  </diagram>
</mxfile>
